<svg width="7" height="12" viewBox="0 0 7 12" fill="none" xmlns="http://www.w3.org/2000/svg">
<path d="M0.308069 0.709778C0.215366 0.802292 0.141818 0.91218 0.0916367 1.03315C0.0414552 1.15413 0.015625 1.28381 0.015625 1.41478C0.015625 1.54575 0.0414552 1.67543 0.0916367 1.7964C0.141818 1.91738 0.215366 2.02726 0.308069 2.11978L4.18807 5.99978L0.308069 9.87978C0.121092 10.0668 0.0160484 10.3204 0.0160484 10.5848C0.0160484 10.8492 0.121092 11.1028 0.308069 11.2898C0.495047 11.4768 0.748643 11.5818 1.01307 11.5818C1.2775 11.5818 1.53109 11.4768 1.71807 11.2898L6.30807 6.69978C6.40077 6.60726 6.47432 6.49738 6.5245 6.3764C6.57468 6.25543 6.60051 6.12575 6.60051 5.99478C6.60051 5.86381 6.57468 5.73413 6.5245 5.61315C6.47432 5.49218 6.40077 5.38229 6.30807 5.28978L1.71807 0.699778C1.33807 0.319778 0.698069 0.319778 0.308069 0.709778Z" fill="#333333"/>
</svg>
